<?xml version="1.0" standalone="no"?>
<!DOCTYPE svg PUBLIC "-//W3C//DTD SVG 20010904//EN"
 "http://www.w3.org/TR/2001/REC-SVG-20010904/DTD/svg10.dtd">
<svg version="1.0" xmlns="http://www.w3.org/2000/svg"
 width="200.000000pt" height="100.000000pt" viewBox="0 0 200.000000 100.000000"
 preserveAspectRatio="xMidYMid meet">

<g xmlns="http://www.w3.org/2000/svg" transform="translate(0.000000,100.000000) scale(0.100000,-0.100000)" fill="red" stroke="none">
<path d="M0 987 c0 -6 151 -87 335 -180 319 -159 338 -167 393 -166 l57 0 -355 179 c-266 134 -364 179 -392 179 -24 1 -38 -4 -38 -12z" style="&#10;    fill: red;&#10;"/>
<path d="M539 850 c167 -83 305 -150 307 -150 2 0 4 68 4 150 l0 150 -307 0 -308 0 304 -150z" style="&#10;    fill: #3434ff;&#10;"/>
<path d="M920 790 l0 -210 -460 0 -460 0 0 -85 0 -85 460 0 460 0 0 -205 0 -205 85 0 85 0 0 205 0 205 455 0 455 0 0 85 0 85 -455 0 -455 0 0 210 0 210 -85 0 -85 0 0 -210z"/>
<path d="M1150 841 l0 -160 318 156 c174 86 319 158 321 159 2 2 -140 4 -317 4 l-322 0 0 -159z" style="&#10;    fill: #3434ff;&#10;"/>
<path d="M1575 821 l-360 -179 63 -1 c61 -1 68 2 392 164 327 164 375 195 298 195 -22 0 -150 -58 -393 -179z" style="&#10;    fill: red;&#10;"/>
<path d="M0 765 l0 -125 247 0 c135 0 244 2 242 4 -2 2 -113 58 -246 125 l-243 121 0 -125z" style="&#10;    fill: #3434ff;&#10;"/>
<path d="M1760 755 l-225 -114 233 0 232 -1 0 115 c0 63 -3 115 -7 114 -5 0 -109 -51 -233 -114z" style="&#10;    fill: #3434ff;&#10;"/>
<path d="M0 225 l0 -115 223 111 c122 61 224 113 226 115 2 2 -98 4 -222 4 l-227 0 0 -115z" style="&#10;    fill: #3434ff;&#10;"/>
<path d="M302 187 c-224 -113 -302 -156 -302 -169 0 -13 8 -18 28 -18 15 0 178 75 367 169 l340 169 -65 1 c-64 0 -69 -2 -368 -152z" style="&#10;    fill: red;&#10;"/>
<path d="M1614 169 c196 -99 347 -169 359 -167 12 2 23 10 25 18 2 11 -87 59 -303 168 -290 144 -308 152 -363 151 l-57 0 339 -170z" style="&#10;    fill: red;&#10;"/>
<path d="M1780 235 c113 -57 208 -104 213 -104 4 -1 7 46 7 104 l0 105 -212 -1 -213 0 205 -104z" style="&#10;    fill: #3434ff;&#10;"/>
<path d="M1150 159 l0 -159 322 0 c177 0 319 2 317 4 -2 1 -147 73 -321 159 l-318 156 0 -160z" style="&#10;    fill: #3434ff;&#10;"/>
<path d="M535 149 l-300 -149 308 0 307 0 0 150 c0 83 -3 150 -7 149 -5 0 -143 -68 -308 -150z" style="&#10;    fill: #3434ff;&#10;"/>
</g>
</svg>
